<svg width="64" height="64" viewBox="0 0 64 64" fill="none" xmlns="http://www.w3.org/2000/svg">
<path fill-rule="evenodd" clip-rule="evenodd" d="M50.4321 36.5622C49.646 35.1709 49.2323 33.5942 49.2323 31.9894C49.2323 30.3847 49.646 28.808 50.4321 27.4166L57.5201 14.9278C57.5899 14.8051 59.1319 11.8491 56.251 10.171L43.1409 2.4776C42.6284 2.16696 42.0433 2.00202 41.4467 2C40.8456 2.0073 40.2565 2.17209 39.7363 2.47847C39.2161 2.78485 38.7823 3.22248 38.4769 3.74908L30.8939 17.1028C30.8365 17.2119 30.773 17.3175 30.7035 17.4191H33.9652C38.0835 17.4191 39.0099 16.6123 40.8756 13.4239L42.1447 11.2231C42.2447 11.0494 42.3874 10.9052 42.5587 10.8045C42.73 10.7038 42.9241 10.6501 43.1219 10.6486C43.3182 10.6498 43.5107 10.7032 43.6803 10.8035L48.9218 13.8822C49.0498 13.9571 49.1621 14.0569 49.2521 14.176C49.3422 14.2951 49.4082 14.431 49.4466 14.5761C49.4849 14.7212 49.4947 14.8725 49.4754 15.0215C49.4561 15.1704 49.4082 15.314 49.3343 15.4441L44.5053 23.9443C43.1211 26.3918 42.3927 29.1659 42.3927 31.9894C42.3927 34.813 43.1211 37.5871 44.5053 40.0346L49.3343 48.5412C49.4082 48.6713 49.4561 48.8149 49.4754 48.9638C49.4947 49.1128 49.4849 49.2641 49.4466 49.4092C49.4082 49.5543 49.3422 49.6903 49.2521 49.8093C49.1621 49.9284 49.0498 50.0283 48.9218 50.1032L43.6803 53.1818C43.5079 53.2811 43.3136 53.3344 43.1156 53.3367C42.9148 53.3416 42.7165 53.2907 42.5421 53.1894C42.3677 53.0882 42.2237 52.9405 42.1256 52.7623L37.2966 44.2621C35.9051 41.8185 33.9075 39.7892 31.5034 38.3768C29.0992 36.9645 26.3728 36.2186 23.5964 36.2137H13.9574C13.66 36.212 13.3753 36.0911 13.165 35.8772C12.9548 35.6634 12.8359 35.3738 12.8342 35.0713V28.914C12.8342 28.611 12.9526 28.3205 13.1632 28.1062C13.3738 27.892 13.6595 27.7716 13.9574 27.7716H23.6155C26.2841 27.764 28.908 27.0737 31.2456 25.7642C33.5831 24.4548 35.5593 22.5682 36.992 20.2783C35.9235 20.6381 34.8052 20.8211 33.6796 20.8205H9.42029C8.51369 20.8222 7.64469 21.1892 7.00363 21.8412C6.36256 22.4933 6.00168 23.3771 6 24.2993V39.6861C6 40.6076 6.35947 41.4915 6.99953 42.1437C7.63959 42.7959 8.50792 43.1632 9.41394 43.1649H23.6155C25.1927 43.168 26.7416 43.5915 28.1078 44.3933C29.4739 45.1951 30.6096 46.3471 31.4015 47.7345L38.5023 60.2362C38.7223 60.6363 39.0186 60.9877 39.3738 61.2698C39.729 61.552 40.136 61.7592 40.5709 61.8794C41.0058 61.9996 41.46 62.0303 41.9067 61.9699C42.3534 61.9094 42.7838 61.7588 43.1727 61.5271L56.2827 53.8337C57.0678 53.3741 57.642 52.6171 57.8798 51.7281C58.1176 50.8392 57.9997 49.8906 57.5519 49.0898C56.3145 46.9535 51.2633 38.0402 50.4321 36.5622Z" fill="#3573FF"/>
</svg>
