<svg width="132" height="24" viewBox="0 0 132 24" fill="none" xmlns="http://www.w3.org/2000/svg">
<path d="M12 2L15.09 8.26L22 9.27L17 14.14L18.18 21.02L12 17.77L5.82 21.02L7 14.14L2 9.27L8.91 8.26L12 2Z" fill="#FFCA0C"/>
<path d="M39 2L42.09 8.26L49 9.27L44 14.14L45.18 21.02L39 17.77L32.82 21.02L34 14.14L29 9.27L35.91 8.26L39 2Z" fill="#FFCA0C"/>
<path d="M66 2L69.09 8.26L76 9.27L71 14.14L72.18 21.02L66 17.77L59.82 21.02L61 14.14L56 9.27L62.91 8.26L66 2Z" fill="#FFCA0C"/>
<path d="M93 2L96.09 8.26L103 9.27L98 14.14L99.18 21.02L93 17.77L86.82 21.02L88 14.14L83 9.27L89.91 8.26L93 2Z" fill="#FFCA0C"/>
<path d="M120 2L123.09 8.26L130 9.27L125 14.14L126.18 21.02L120 17.77L113.82 21.02L115 14.14L110 9.27L116.91 8.26L120 2Z" fill="#FFCA0C"/>
</svg>
