<svg width="20" height="23" viewBox="0 0 20 23" fill="none" xmlns="http://www.w3.org/2000/svg">
<path fill-rule="evenodd" clip-rule="evenodd" d="M17.0893 13.2489C16.7869 12.7155 16.6278 12.1111 16.6278 11.496C16.6278 10.8808 16.7869 10.2764 17.0893 9.74305L19.8154 4.95564C19.8423 4.90863 20.4354 3.77549 19.3273 3.13222L14.285 0.183082C14.0879 0.0640031 13.8628 0.000775452 13.6333 0C13.4021 0.00279744 13.1756 0.0659671 12.9755 0.183414C12.7754 0.300861 12.6086 0.468615 12.4911 0.670482L9.57457 5.78942C9.55251 5.83123 9.52806 5.87171 9.50135 5.91064H10.7558C12.3398 5.91064 12.6961 5.60138 13.4137 4.37917L13.9018 3.53551C13.9403 3.46895 13.9951 3.41365 14.061 3.37505C14.1269 3.33645 14.2016 3.31587 14.2777 3.31531C14.3531 3.31574 14.4272 3.33621 14.4924 3.37468L16.5084 4.55484C16.5576 4.58355 16.6008 4.62182 16.6354 4.66747C16.6701 4.71311 16.6955 4.76523 16.7102 4.82085C16.725 4.87646 16.7287 4.93447 16.7213 4.99157C16.7139 5.04866 16.6955 5.10371 16.667 5.15357L14.8097 8.41197C14.2774 9.35019 13.9972 10.4136 13.9972 11.496C13.9972 12.5783 14.2774 13.6417 14.8097 14.5799L16.667 17.8408C16.6955 17.8907 16.7139 17.9457 16.7213 18.0028C16.7287 18.0599 16.725 18.1179 16.7102 18.1735C16.6955 18.2291 16.6701 18.2813 16.6354 18.3269C16.6008 18.3726 16.5576 18.4108 16.5084 18.4395L14.4924 19.6197C14.4261 19.6577 14.3514 19.6782 14.2752 19.6791C14.198 19.6809 14.1217 19.6614 14.0547 19.6226C13.9876 19.5838 13.9322 19.5272 13.8945 19.4589L12.0372 16.2005C11.502 15.2638 10.7337 14.4859 9.80898 13.9445C8.88431 13.4031 7.83568 13.1171 6.76785 13.1153H3.06054C2.94617 13.1146 2.83666 13.0683 2.75579 12.9863C2.67491 12.9043 2.62919 12.7933 2.62855 12.6773V10.317C2.62855 10.2009 2.67406 10.0895 2.75508 10.0074C2.83609 9.92526 2.94597 9.87912 3.06054 9.87912H6.77517C7.80158 9.8762 8.81076 9.61158 9.70983 9.10962C10.6089 8.60766 11.3689 7.88449 11.92 7.00668C11.509 7.14459 11.0789 7.21476 10.646 7.21451H1.3155C0.966804 7.21516 0.632574 7.35587 0.38601 7.60581C0.139446 7.85576 0.000645133 8.19457 0 8.54805V14.4463C-5.9973e-07 14.7996 0.138259 15.1384 0.384435 15.3884C0.630611 15.6384 0.964586 15.7792 1.31305 15.7799H6.77517C7.38181 15.7811 7.97755 15.9434 8.50299 16.2508C9.02843 16.5581 9.46522 16.9997 9.76982 17.5315L12.5009 22.3239C12.5855 22.4772 12.6995 22.6119 12.8361 22.7201C12.9727 22.8283 13.1292 22.9077 13.2965 22.9538C13.4638 22.9998 13.6384 23.0116 13.8103 22.9884C13.9821 22.9653 14.1476 22.9076 14.2972 22.8187L19.3395 19.8696C19.6414 19.6934 19.8623 19.4032 19.9538 19.0624C20.0452 18.7217 19.9999 18.3581 19.8276 18.0511C19.3517 17.2322 17.409 13.8154 17.0893 13.2489Z" fill="#3573FF"/>
</svg>
