<svg width="1416" height="1569" viewBox="0 0 1416 1569" fill="none" xmlns="http://www.w3.org/2000/svg">
<path fill-rule="evenodd" clip-rule="evenodd" d="M1209.92 903.233C1188.51 866.872 1177.25 825.667 1177.25 783.73C1177.25 741.792 1188.51 700.588 1209.92 664.226L1402.93 337.848C1404.83 334.643 1446.82 257.392 1368.37 213.538L1011.38 12.4815C997.42 4.36337 981.486 0.052866 965.24 0C948.872 0.190714 932.831 4.49727 918.665 12.5041C904.5 20.511 892.688 31.9476 884.371 45.7097L677.88 394.69C676.317 397.541 674.587 400.3 672.696 402.955H761.513C873.658 402.955 898.886 381.871 949.688 298.547L984.247 241.031C986.971 236.493 990.856 232.724 995.52 230.092C1000.19 227.461 1005.47 226.057 1010.86 226.019C1016.2 226.048 1021.44 227.444 1026.06 230.067L1168.79 310.523C1172.28 312.481 1175.34 315.09 1177.79 318.202C1180.24 321.314 1182.04 324.867 1183.08 328.658C1184.13 332.45 1184.39 336.405 1183.87 340.297C1183.34 344.189 1182.04 347.942 1180.03 351.341L1048.53 573.481C1010.84 637.444 991 709.941 991 783.73C991 857.519 1010.84 930.015 1048.53 993.978L1180.03 1216.29C1182.04 1219.69 1183.34 1223.44 1183.87 1227.33C1184.39 1231.22 1184.13 1235.18 1183.08 1238.97C1182.04 1242.76 1180.24 1246.31 1177.79 1249.43C1175.34 1252.54 1172.28 1255.15 1168.79 1257.1L1026.06 1337.56C1021.37 1340.16 1016.08 1341.55 1010.69 1341.61C1005.22 1341.74 999.819 1340.41 995.07 1337.76C990.32 1335.12 986.399 1331.26 983.729 1326.6L852.231 1104.46C814.339 1040.6 759.942 987.564 694.476 950.655C629.009 913.745 554.766 894.252 479.164 894.125H216.686C208.589 894.08 200.836 890.921 195.11 885.332C189.384 879.742 186.147 872.174 186.101 864.27V703.358C186.101 695.44 189.324 687.846 195.059 682.248C200.795 676.649 208.575 673.503 216.686 673.503H479.682C552.352 673.304 623.802 655.264 687.456 621.043C751.11 586.822 804.921 537.52 843.937 477.676C814.84 487.078 784.387 491.862 753.737 491.845H93.1372C68.4497 491.889 44.7862 501.482 27.3295 518.522C9.87281 535.562 0.0456754 558.66 1.38137e-10 582.758V984.87C-4.24609e-05 1008.95 9.78874 1032.05 27.218 1049.1C44.6473 1066.14 68.2926 1075.74 92.9642 1075.78H479.682C522.632 1075.86 564.81 1086.93 602.012 1107.89C639.213 1128.84 670.138 1158.95 691.703 1195.2L885.062 1521.92C891.054 1532.37 899.123 1541.56 908.795 1548.93C918.468 1556.3 929.55 1561.72 941.393 1564.86C953.236 1568 965.602 1568.8 977.767 1567.22C989.932 1565.64 1001.65 1561.71 1012.24 1555.65L1369.24 1354.6C1390.61 1342.59 1406.25 1322.8 1412.73 1299.57C1419.2 1276.34 1415.99 1251.55 1403.8 1230.62C1370.1 1174.79 1232.56 941.859 1209.92 903.233Z" fill="#DAE5FC"/>
</svg>
