<svg width="2800" height="2616" viewBox="0 0 2800 2616" fill="none" xmlns="http://www.w3.org/2000/svg">
<g filter="url(#filter0_f_933_303)">
<path d="M1076.5 2325.38C1510.87 2325.38 1863 2026.22 1863 1657.19C1863 1288.16 1510.87 989.006 1076.5 989.006C642.128 989.006 290 1288.16 290 1657.19C290 2026.22 642.128 2325.38 1076.5 2325.38Z" fill="url(#paint0_radial_933_303)"/>
</g>
<g filter="url(#filter1_f_933_303)">
<path d="M2281 1248C2281 845.384 1936.48 519 1511.5 519C1086.52 519 742 845.384 742 1248C742 1650.62 1086.52 1977 1511.5 1977C1936.48 1977 2281 1650.62 2281 1248Z" fill="url(#paint1_radial_933_303)"/>
</g>
<g filter="url(#filter2_f_933_303)">
<ellipse cx="971.748" cy="1484.99" rx="233.623" ry="530.036" transform="rotate(45 971.748 1484.99)" fill="url(#paint2_radial_933_303)"/>
</g>
<defs>
<filter id="filter0_f_933_303" x="0" y="699.006" width="2153" height="1916.37" filterUnits="userSpaceOnUse" color-interpolation-filters="sRGB">
<feFlood flood-opacity="0" result="BackgroundImageFix"/>
<feBlend mode="normal" in="SourceGraphic" in2="BackgroundImageFix" result="shape"/>
<feGaussianBlur stdDeviation="145" result="effect1_foregroundBlur_933_303"/>
</filter>
<filter id="filter1_f_933_303" x="223" y="0" width="2577" height="2496" filterUnits="userSpaceOnUse" color-interpolation-filters="sRGB">
<feFlood flood-opacity="0" result="BackgroundImageFix"/>
<feBlend mode="normal" in="SourceGraphic" in2="BackgroundImageFix" result="shape"/>
<feGaussianBlur stdDeviation="259.5" result="effect1_foregroundBlur_933_303"/>
</filter>
<filter id="filter2_f_933_303" x="272.062" y="785.301" width="1399.37" height="1399.38" filterUnits="userSpaceOnUse" color-interpolation-filters="sRGB">
<feFlood flood-opacity="0" result="BackgroundImageFix"/>
<feBlend mode="normal" in="SourceGraphic" in2="BackgroundImageFix" result="shape"/>
<feGaussianBlur stdDeviation="145" result="effect1_foregroundBlur_933_303"/>
</filter>
<radialGradient id="paint0_radial_933_303" cx="0" cy="0" r="1" gradientUnits="userSpaceOnUse" gradientTransform="translate(1076.5 1657.19) rotate(90) scale(668.185 786.5)">
<stop stop-color="#3573FF"/>
<stop offset="1" stop-color="#3573FF" stop-opacity="0"/>
</radialGradient>
<radialGradient id="paint1_radial_933_303" cx="0" cy="0" r="1" gradientUnits="userSpaceOnUse" gradientTransform="translate(1511.5 1248) scale(769.5 729)">
<stop stop-color="#9178CB"/>
<stop offset="1" stop-color="#9178CB" stop-opacity="0"/>
</radialGradient>
<radialGradient id="paint2_radial_933_303" cx="0" cy="0" r="1" gradientUnits="userSpaceOnUse" gradientTransform="translate(971.748 1484.99) rotate(90) scale(530.036 233.623)">
<stop stop-color="#FFA235"/>
<stop offset="1" stop-color="#FFB052" stop-opacity="0"/>
</radialGradient>
</defs>
</svg>
