<svg width="35" height="39" viewBox="0 0 35 39" fill="none" xmlns="http://www.w3.org/2000/svg">
<path fill-rule="evenodd" clip-rule="evenodd" d="M29.2944 22.4347C28.7761 21.5315 28.5034 20.5081 28.5034 19.4664C28.5034 18.4248 28.7761 17.4013 29.2944 16.4982L33.9676 8.39152C34.0136 8.31192 35.0303 6.39314 33.1309 5.30388L24.4873 0.310017C24.1494 0.108378 23.7636 0.00131309 23.3703 0C22.974 0.00473698 22.5856 0.111704 22.2426 0.31058C21.8996 0.509456 21.6136 0.793519 21.4123 1.13534L16.4127 9.80338C16.3749 9.87418 16.333 9.94272 16.2872 10.0087H18.4377C21.1529 10.0087 21.7637 9.48497 22.9937 7.41537L23.8305 5.98677C23.8964 5.87406 23.9905 5.78043 24.1034 5.71507C24.2164 5.64971 24.3443 5.61485 24.4748 5.6139C24.6041 5.61463 24.7311 5.64929 24.8429 5.71444L28.2987 7.71283C28.3831 7.76145 28.4571 7.82626 28.5165 7.90355C28.5758 7.98084 28.6194 8.0691 28.6446 8.16327C28.6699 8.25744 28.6764 8.35568 28.6637 8.45236C28.651 8.54903 28.6193 8.64225 28.5706 8.72668L25.3868 14.2442C24.4742 15.8329 23.994 17.6336 23.994 19.4664C23.994 21.2992 24.4742 23.0999 25.3868 24.6886L28.5706 30.2103C28.6193 30.2947 28.651 30.388 28.6637 30.4846C28.6764 30.5813 28.6699 30.6796 28.6446 30.7737C28.6194 30.8679 28.5758 30.9562 28.5165 31.0335C28.4571 31.1108 28.3831 31.1756 28.2987 31.2242L24.8429 33.2226C24.7293 33.287 24.6012 33.3216 24.4706 33.3231C24.3382 33.3263 24.2075 33.2932 24.0925 33.2275C23.9775 33.1618 23.8826 33.066 23.8179 32.9502L20.6341 27.4327C19.7167 25.8466 18.3996 24.5293 16.8146 23.6125C15.2295 22.6958 13.4319 22.2116 11.6015 22.2084H5.24638C5.05032 22.2073 4.86261 22.1288 4.72397 21.99C4.58534 21.8512 4.50696 21.6632 4.50586 21.4669V17.4701C4.50586 17.2734 4.58388 17.0848 4.72275 16.9458C4.86163 16.8067 5.04998 16.7286 5.24638 16.7286H11.614C13.3735 16.7236 15.1034 16.2756 16.6446 15.4256C18.1858 14.5756 19.4886 13.351 20.4333 11.8646C19.7288 12.0981 18.9915 12.2169 18.2494 12.2165H2.25502C1.65729 12.2176 1.08436 12.4559 0.661699 12.8791C0.239039 13.3024 0.00110589 13.8761 0 14.4746V24.4624C-1.02806e-06 25.0605 0.237004 25.6343 0.658998 26.0576C1.08099 26.481 1.65349 26.7194 2.25084 26.7205H11.614C12.6539 26.7225 13.6751 26.9974 14.5758 27.5179C15.4765 28.0383 16.2253 28.7861 16.7474 29.6866L21.429 37.8017C21.5741 38.0613 21.7694 38.2894 22.0036 38.4726C22.2378 38.6557 22.5061 38.7902 22.7929 38.8682C23.0796 38.9463 23.379 38.9662 23.6736 38.927C23.9681 38.8877 24.2519 38.79 24.5082 38.6395L33.1518 33.6457C33.6694 33.3474 34.0479 32.856 34.2047 32.279C34.3615 31.7019 34.2838 31.0862 33.9885 30.5664C33.1727 29.1797 29.8425 23.394 29.2944 22.4347Z" fill="white"/>
</svg>
