<svg width="156" height="23" viewBox="0 0 156 23" fill="none" xmlns="http://www.w3.org/2000/svg">
<path fill-rule="evenodd" clip-rule="evenodd" d="M155.828 13.1542H147.048V14.392C147.045 14.538 147.071 14.6832 147.125 14.8187C147.179 14.9542 147.26 15.0773 147.362 15.1805C147.464 15.2838 147.586 15.3651 147.72 15.4195C147.854 15.474 147.998 15.5005 148.142 15.4974C149.784 15.4974 152.189 15.3762 155.296 15.1188C155.345 15.1198 155.391 15.1402 155.426 15.1756C155.46 15.211 155.479 15.2585 155.479 15.3081V17.8443C155.479 17.8908 155.463 17.9358 155.432 17.9707C155.402 18.0056 155.36 18.028 155.314 18.0336C152.118 18.3553 149.176 18.5219 146.568 18.5219C144.32 18.5219 142.855 17.0494 142.855 14.7706V8.48304C142.855 5.96197 144.331 4.47054 146.827 4.47054H152.024C154.524 4.47054 156 5.96197 156 8.48304V12.9649C156 13.0126 155.982 13.0586 155.951 13.0937C155.919 13.1288 155.875 13.1504 155.828 13.1542ZM151.837 8.61175C151.853 8.44527 151.832 8.27734 151.776 8.11998C151.72 7.96262 151.63 7.81971 151.513 7.70146C151.396 7.58321 151.254 7.49253 151.098 7.43591C150.943 7.37929 150.776 7.35813 150.612 7.37393H148.273C148.109 7.35813 147.942 7.37929 147.787 7.43591C147.631 7.49253 147.489 7.58321 147.372 7.70146C147.255 7.81971 147.166 7.96262 147.109 8.11998C147.053 8.27734 147.032 8.44527 147.048 8.61175V10.2433H151.837V8.61175ZM140.138 18.2721H136.335C136.285 18.2721 136.238 18.2521 136.203 18.2166C136.168 18.1811 136.148 18.133 136.148 18.0828V9.02057C136.151 8.8744 136.125 8.7291 136.071 8.5934C136.017 8.45769 135.936 8.33436 135.834 8.2308C135.732 8.12724 135.61 8.04558 135.476 7.9907C135.342 7.93583 135.198 7.90888 135.054 7.91146H134.143C133.014 7.87246 131.889 8.0683 130.838 8.48683V18.1055C130.838 18.1557 130.818 18.2038 130.783 18.2393C130.748 18.2748 130.7 18.2948 130.651 18.2948H126.855C126.806 18.2938 126.759 18.2734 126.725 18.238C126.691 18.2026 126.671 18.155 126.671 18.1055V4.921C126.671 4.89633 126.675 4.87179 126.684 4.84885C126.693 4.82591 126.707 4.80502 126.724 4.78739C126.741 4.76976 126.761 4.75575 126.784 4.7462C126.806 4.73664 126.83 4.73173 126.855 4.73173H130.209C130.252 4.73172 130.294 4.74679 130.327 4.77438C130.361 4.80198 130.384 4.8404 130.392 4.88315L130.647 6.16639C130.647 6.16639 132.996 4.47054 135.455 4.47054H136.597C138.846 4.47054 140.311 5.94306 140.311 8.22186V18.1055C140.307 18.1498 140.287 18.1912 140.255 18.2224C140.224 18.2536 140.182 18.2725 140.138 18.2758V18.2721ZM123.722 18.2721H119.915C119.866 18.2721 119.818 18.2521 119.783 18.2166C119.748 18.1811 119.728 18.133 119.728 18.0828V8.42626H117.967C117.942 8.42677 117.918 8.42234 117.895 8.41324C117.873 8.40415 117.852 8.39057 117.834 8.3733C117.817 8.35602 117.803 8.3354 117.794 8.31265C117.784 8.28989 117.779 8.26546 117.779 8.24078V5.44338C117.779 5.4187 117.784 5.39426 117.794 5.37151C117.803 5.34876 117.817 5.32814 117.834 5.31086C117.852 5.29359 117.873 5.28001 117.895 5.27091C117.918 5.26182 117.942 5.25739 117.967 5.2579H123.722C123.771 5.2579 123.818 5.27744 123.852 5.31223C123.887 5.34701 123.906 5.39418 123.906 5.44338V18.1055C123.901 18.1517 123.88 18.1946 123.846 18.226C123.812 18.2574 123.768 18.2751 123.722 18.2758V18.2721ZM123.722 3.30086H119.915C119.891 3.30136 119.867 3.29693 119.844 3.28784C119.821 3.27874 119.8 3.26515 119.783 3.24788C119.766 3.23061 119.752 3.20999 119.742 3.18723C119.733 3.16448 119.728 3.14005 119.728 3.11537V0.189269C119.728 0.139072 119.748 0.0909218 119.783 0.0554269C119.818 0.019932 119.866 4.03058e-09 119.915 4.03058e-09H123.722C123.747 -5.13602e-06 123.771 0.00490595 123.793 0.0144632C123.816 0.0240205 123.836 0.0380312 123.853 0.0556579C123.871 0.0732847 123.884 0.0941723 123.893 0.117115C123.902 0.140058 123.906 0.164595 123.906 0.189269V3.11537C123.906 3.14004 123.902 3.16457 123.893 3.18751C123.884 3.21045 123.871 3.23135 123.853 3.24898C123.836 3.2666 123.816 3.2806 123.793 3.29016C123.771 3.29972 123.747 3.30464 123.722 3.30463V3.30086ZM112.395 22.9849C109.772 22.9849 106.845 22.8221 103.649 22.4965C103.604 22.4911 103.562 22.4692 103.532 22.4351C103.502 22.401 103.485 22.3569 103.484 22.3111V19.6386C103.484 19.5894 103.503 19.5422 103.538 19.5074C103.572 19.4726 103.619 19.4531 103.668 19.4531C106.77 19.6954 109.18 19.8316 110.821 19.8316C110.966 19.8347 111.109 19.8083 111.243 19.7538C111.377 19.6994 111.499 19.618 111.602 19.5148C111.704 19.4115 111.784 19.2884 111.838 19.1529C111.892 19.0174 111.918 18.8723 111.915 18.7263V17.1819C110.415 17.5912 108.864 17.7824 107.31 17.7497H106.399C104.151 17.7497 102.686 16.2734 102.686 13.9984V8.74423C102.686 6.22317 104.162 4.73173 106.662 4.73173H115.906C115.956 4.73173 116.003 4.75166 116.038 4.78716C116.073 4.82265 116.093 4.8708 116.093 4.921V19.2411C116.108 21.5123 114.651 23 112.395 23V22.9849ZM111.93 7.88495H108.119C107.955 7.86916 107.788 7.89032 107.633 7.94694C107.477 8.00356 107.335 8.09424 107.218 8.21249C107.101 8.33074 107.011 8.47365 106.955 8.63101C106.899 8.78837 106.878 8.95629 106.894 9.12277V13.457C106.891 13.6034 106.917 13.7488 106.971 13.8846C107.026 14.0203 107.106 14.1436 107.209 14.2469C107.312 14.3502 107.434 14.4315 107.568 14.4857C107.703 14.5399 107.847 14.566 107.992 14.5624H108.64C109.749 14.5919 110.858 14.4942 111.945 14.2709L111.93 7.88495ZM99.9806 18.2607H96.1735C96.1238 18.2607 96.0762 18.2408 96.041 18.2053C96.0059 18.1698 95.9862 18.1216 95.9862 18.0714V9.02057C95.9928 8.87221 95.9693 8.72403 95.9171 8.58521C95.8649 8.44638 95.785 8.31985 95.6825 8.21343C95.58 8.107 95.4569 8.02294 95.3209 7.96644C95.185 7.90995 95.039 7.88221 94.892 7.88495H93.9815C92.8524 7.84596 91.7275 8.0418 90.6765 8.46033V18.1055C90.6765 18.155 90.6573 18.2026 90.623 18.238C90.5886 18.2734 90.5419 18.2938 90.4929 18.2948H86.6858C86.6361 18.2948 86.5885 18.2748 86.5533 18.2393C86.5182 18.2038 86.4985 18.1557 86.4985 18.1055V4.921C86.4985 4.8708 86.5182 4.82265 86.5533 4.78716C86.5885 4.75166 86.6361 4.73173 86.6858 4.73173H90.0395C90.0822 4.73188 90.1236 4.74708 90.1564 4.77472C90.1892 4.80236 90.2115 4.84071 90.2193 4.88315L90.4741 6.16639C90.4741 6.16639 92.8236 4.47054 95.2817 4.47054H96.4508C98.6991 4.47054 100.164 5.94306 100.164 8.22186V18.1055C100.16 18.1517 100.138 18.1946 100.105 18.226C100.071 18.2574 100.027 18.2751 99.9806 18.2758V18.2607ZM84.0366 18.2607H70.3521C70.3024 18.2607 70.2548 18.2408 70.2196 18.2053C70.1845 18.1698 70.1648 18.1216 70.1648 18.0714V0.454239C70.1648 0.42956 70.1696 0.405128 70.1791 0.382374C70.1886 0.35962 70.2024 0.339 70.2199 0.321725C70.2373 0.304451 70.258 0.290874 70.2807 0.281778C70.3034 0.272683 70.3277 0.268256 70.3521 0.268759H84.0366C84.0853 0.268759 84.132 0.288304 84.1664 0.323089C84.2009 0.357874 84.2202 0.405046 84.2202 0.454239V3.38035C84.2207 3.40502 84.2163 3.42955 84.2073 3.45249C84.1983 3.47543 84.1849 3.49633 84.1678 3.51396C84.1507 3.53159 84.1303 3.54558 84.1077 3.55514C84.0852 3.5647 84.061 3.56962 84.0366 3.56962H74.474V7.50642H81.9682C82.0172 7.50741 82.0639 7.52778 82.0983 7.56317C82.1326 7.59856 82.1518 7.64614 82.1518 7.69569V10.6218C82.1518 10.6713 82.1326 10.7189 82.0983 10.7543C82.0639 10.7897 82.0172 10.8101 81.9682 10.8111H74.474V14.9939H84.0366C84.0853 14.9939 84.132 15.0135 84.1664 15.0482C84.2009 15.083 84.2202 15.1302 84.2202 15.1794V18.1055C84.2156 18.1517 84.1944 18.1946 84.1605 18.226C84.1267 18.2574 84.0826 18.2751 84.0366 18.2758V18.2607ZM60.2499 13.1391H51.4667V14.3769C51.4636 14.5232 51.4899 14.6687 51.544 14.8044C51.5982 14.9402 51.679 15.0635 51.7816 15.1668C51.8842 15.2701 52.0065 15.3513 52.1411 15.4055C52.2757 15.4598 52.4197 15.4858 52.5646 15.4822C54.2058 15.4822 56.6114 15.3611 59.7178 15.1037C59.7675 15.1037 59.8152 15.1236 59.8503 15.1591C59.8854 15.1946 59.9052 15.2428 59.9052 15.293V17.8292C59.9054 17.8762 59.8883 17.9217 59.8571 17.9567C59.8259 17.9917 59.7829 18.0137 59.7365 18.0184C56.544 18.3402 53.6025 18.5067 50.9908 18.5067C48.7425 18.5067 47.2774 17.0342 47.2774 14.7554V8.48304C47.2774 5.96197 48.7537 4.47054 51.2531 4.47054H56.4503C58.9496 4.47054 60.426 5.96197 60.426 8.48304V12.9649C60.4261 13.0132 60.4079 13.0597 60.3752 13.0949C60.3424 13.1301 60.2976 13.1513 60.2499 13.1542V13.1391ZM56.2592 8.59661C56.2749 8.43012 56.2539 8.26219 56.1979 8.10484C56.1418 7.94748 56.0521 7.80457 55.935 7.68632C55.8179 7.56806 55.6765 7.47739 55.5207 7.42077C55.3649 7.36415 55.1987 7.34298 55.0339 7.35878H52.692C52.5272 7.34298 52.3609 7.36415 52.2052 7.42077C52.0494 7.47739 51.9079 7.56806 51.7909 7.68632C51.6738 7.80457 51.5841 7.94748 51.528 8.10484C51.472 8.26219 51.451 8.43012 51.4667 8.59661V10.2281H56.2592V8.59661ZM41.5593 18.5181C38.6103 18.5181 35.4065 18.3516 32.0341 18.026C31.9884 18.0214 31.9459 17.9999 31.9148 17.9657C31.8837 17.9315 31.8662 17.8869 31.8655 17.8405V15.1907C31.8655 15.1405 31.8852 15.0924 31.9204 15.0569C31.9555 15.0214 32.0032 15.0015 32.0528 15.0015C35.3728 15.2437 38.0482 15.38 39.9892 15.38C40.1339 15.3826 40.2777 15.3556 40.4118 15.3008C40.546 15.2459 40.6678 15.1642 40.7699 15.0607C40.8721 14.9571 40.9525 14.8338 41.0064 14.6981C41.0603 14.5624 41.0864 14.4171 41.0834 14.2709V13.1656H35.3203C33.0721 13.1656 31.6069 11.6893 31.6069 9.41425V8.4944C31.6069 6.22316 33.0646 4.74309 35.3203 4.74309H43.7888C43.8132 4.74308 43.8374 4.74799 43.86 4.75755C43.8825 4.76711 43.9029 4.78112 43.92 4.79875C43.9371 4.81637 43.9505 4.83726 43.9595 4.8602C43.9685 4.88315 43.9729 4.90768 43.9724 4.93236V7.58213C43.9729 7.6068 43.9685 7.63133 43.9595 7.65427C43.9505 7.67721 43.9371 7.69811 43.92 7.71574C43.9029 7.73337 43.8825 7.74737 43.86 7.75692C43.8374 7.76648 43.8132 7.7714 43.7888 7.7714H36.8791C36.5889 7.7714 36.3106 7.88784 36.1054 8.09513C35.9002 8.30242 35.785 8.58357 35.785 8.87672C35.785 9.16988 35.9002 9.45102 36.1054 9.65831C36.3106 9.86561 36.5889 9.98206 36.8791 9.98206H41.5593C43.8075 9.98206 45.2727 11.4584 45.2727 13.7334V14.7857C45.2727 17.0645 43.815 18.537 41.5593 18.537V18.5181ZM29.4036 18.2569H26.0575C26.0143 18.2569 25.9724 18.2419 25.9389 18.2143C25.9055 18.1867 25.8825 18.1482 25.8739 18.1055L25.6228 16.8185C25.6228 16.8185 23.3745 18.5181 20.8152 18.5181H19.9047C17.6564 18.5181 16.1913 17.0456 16.1913 14.7668V13.5857C16.1913 11.3145 17.6489 9.83443 19.9047 9.83443H25.4204V8.59661C25.423 8.45025 25.3963 8.30487 25.342 8.16915C25.2878 8.03342 25.207 7.91014 25.1045 7.80663C25.0021 7.70313 24.88 7.62153 24.7457 7.56669C24.6113 7.51186 24.4674 7.48493 24.3225 7.48749C23.1984 7.48749 21.9394 7.54048 20.5754 7.64647C19.4288 7.73732 18.4546 7.80546 17.6826 7.85845C17.6582 7.85846 17.634 7.85354 17.6115 7.84398C17.589 7.83442 17.5686 7.82042 17.5515 7.8028C17.5344 7.78517 17.5209 7.76427 17.5119 7.74133C17.5029 7.71839 17.4985 7.69386 17.499 7.66918V5.1254C17.4979 5.07908 17.5144 5.03408 17.545 4.9996C17.5757 4.96512 17.6182 4.94377 17.6639 4.93992C20.3907 4.64129 23.1311 4.48714 25.8739 4.47811C28.1221 4.47811 29.591 5.95062 29.591 8.22943V18.1055C29.5855 18.152 29.5635 18.195 29.5291 18.2263C29.4946 18.2576 29.45 18.2753 29.4036 18.2758V18.2569ZM25.413 12.7416H21.456C21.3115 12.7385 21.1678 12.765 21.0337 12.8194C20.8995 12.8739 20.7777 12.9552 20.6755 13.0585C20.5733 13.1617 20.4928 13.2848 20.4389 13.4203C20.385 13.5558 20.3588 13.7009 20.3618 13.8469V14.1119C20.3588 14.2579 20.385 14.403 20.4389 14.5385C20.4928 14.674 20.5733 14.7971 20.6755 14.9004C20.7777 15.0037 20.8995 15.085 21.0337 15.1394C21.1678 15.1939 21.3115 15.2203 21.456 15.2172H22.108C23.1846 15.1945 24.2523 15.0147 25.2781 14.6835L25.413 14.6456V12.7416ZM4.75135 18.5181C1.45764 18.5181 0 17.0456 0 13.7144V5.33361C0 1.7602 1.47636 0.268759 5.00989 0.268759H14.003C14.0517 0.268759 14.0984 0.288304 14.1328 0.323089C14.1672 0.357874 14.1866 0.405046 14.1866 0.454239V3.38035C14.1871 3.40502 14.1827 3.42955 14.1737 3.45249C14.1647 3.47543 14.1512 3.49633 14.1341 3.51396C14.117 3.53159 14.0966 3.54558 14.0741 3.55514C14.0516 3.5647 14.0274 3.56962 14.003 3.56962H6.05159C4.90872 3.56962 4.30545 4.17907 4.30545 5.33361V13.7334C4.29001 13.9307 4.31603 14.1291 4.38182 14.3156C4.44761 14.502 4.55168 14.6723 4.68719 14.8153C4.8227 14.9583 4.98661 15.0707 5.16815 15.1452C5.34969 15.2197 5.54476 15.2546 5.74059 15.2475C7.45677 15.2475 9.63009 15.1491 13.9842 14.869C14.0333 14.87 14.08 14.8904 14.1143 14.9258C14.1486 14.9611 14.1679 15.0087 14.1678 15.0583V17.8595C14.1681 17.9065 14.1509 17.952 14.1198 17.987C14.0886 18.022 14.0456 18.044 13.9992 18.0487C10.3196 18.3705 7.20572 18.537 4.75135 18.537V18.5181Z" fill="white"/>
</svg>
